<?xml version="1.0" encoding="UTF-8" standalone="no"?>
<!DOCTYPE svg PUBLIC "-//W3C//DTD SVG 1.1//EN" "http://www.w3.org/Graphics/SVG/1.1/DTD/svg11.dtd">
<svg width="100%" height="100%" viewBox="0 0 3000 400" version="1.1" xmlns="http://www.w3.org/2000/svg" xmlns:xlink="http://www.w3.org/1999/xlink" xml:space="preserve" xmlns:serif="http://www.serif.com/" style="fill-rule:evenodd;clip-rule:evenodd;stroke-linejoin:round;stroke-miterlimit:2;">
    <g transform="matrix(1,0,0,1,-400,-1700)">
        <g>
            <g>
                <g>
                    <g>
                        <g transform="matrix(1,0,0,1,-160,650)">
                            <g transform="matrix(0.85,0,0,0.85,735,200)">
                                <path d="M900,1050C900,1077.596 877.596,1100 850,1100C822.404,1100 800,1077.596 800,1050C800,1022.404 822.404,1000 850,1000C877.596,1000 900,1022.404 900,1050Z" style="fill:rgb(231,76,93);"/>
                            </g>
                            <g transform="matrix(0.85,0,0,0.85,520,515)">
                                <path d="M900,1050C900,1077.596 877.596,1100 850,1100C822.404,1100 800,1077.596 800,1050C800,1022.404 822.404,1000 850,1000C877.596,1000 900,1022.404 900,1050Z" style="fill:rgb(231,76,93);"/>
                            </g>
                        </g>
                    </g>
                    <path d="M1040,2000L1040,1700L1240,1700L1240,1800L1140,1800L1140,2000L1040,2000Z" style="fill:rgb(231,76,93);"/>
                    <path d="M1240,1800L1340,1800L1340,2100L1140,2100L1140,2000L1240,2000L1240,1800Z" style="fill:rgb(231,76,93);"/>
                </g>
                <g>
                    <path d="M400,2100L400,1700L500,1700L500,1800L550,1800L550,1900L500,1900L500,2100L400,2100Z" style="fill:rgb(231,76,93);"/>
                    <path d="M550,1900L600,1900L600,1700L700,1700L700,2100L600,2100L600,2000L550,2000L550,1900Z" style="fill:rgb(231,76,93);"/>
                </g>
                <path d="M720,2100L720,1700L1020,1700L1020,1800L820,1800L820,1850L970,1850L970,1950L820,1950L820,2000L1020,2000L1020,2100L720,2100Z" style="fill:rgb(231,76,93);"/>
            </g>
            <g>
                <g>
                    <g transform="matrix(0.85,0,0,0.85,1035,850)">
                        <path d="M900,1050C900,1077.596 877.596,1100 850,1100C822.404,1100 800,1077.596 800,1050C800,1022.404 822.404,1000 850,1000C877.596,1000 900,1022.404 900,1050Z" style="fill:rgb(231,76,93);"/>
                    </g>
                    <path d="M1500,2100L1500,1700L1700,1700L1700,1800L1600,1800L1600,1900L1700,1900L1700,1800L1800,1800L1800,2000L1600,2000L1600,2100L1500,2100Z" style="fill:rgb(231,76,93);"/>
                </g>
                <g>
                    <g transform="matrix(1,0,0,1,1440,850)">
                        <rect x="800" y="1000" width="100" height="100" style="fill:rgb(231,76,93);"/>
                    </g>
                    <rect x="2140" y="1700" width="100" height="150" style="fill:rgb(231,76,93);"/>
                    <rect x="2340" y="1700" width="100" height="150" style="fill:rgb(231,76,93);"/>
                    <rect x="2140" y="1950" width="100" height="150" style="fill:rgb(231,76,93);"/>
                    <rect x="2340" y="1950" width="100" height="150" style="fill:rgb(231,76,93);"/>
                </g>
                <path d="M1920,1800L1820,1800L1820,1700L2120,1700L2120,1800L2020,1800L2020,2000L2120,2000L2120,2100L1820,2100L1820,2000L1920,2000L1920,1800Z" style="fill:rgb(231,76,93);"/>
                <path d="M2460,2100L2460,1700L2760,1700L2760,1800L2560,1800L2560,1850L2710,1850L2710,1950L2560,1950L2560,2000L2760,2000L2760,2100L2460,2100Z" style="fill:rgb(231,76,93);"/>
                <path d="M2780,2100L2780,1700L2880,1700L2880,2000L3080,2000L3080,2100L2780,2100Z" style="fill:rgb(231,76,93);"/>
                <g>
                    <path d="M3250,1800L3100,1800L3100,1700L3400,1700L3400,1800L3350,1800L3350,1900L3250,1900L3250,1800Z" style="fill:rgb(231,76,93);"/>
                    <path d="M3250,1900L3250,2000L3400,2000L3400,2100L3100,2100L3100,2000L3150,2000L3150,1900L3250,1900Z" style="fill:rgb(231,76,93);"/>
                </g>
            </g>
        </g>
    </g>
</svg>
