<?xml version="1.0" encoding="UTF-8" standalone="no"?>
<!DOCTYPE svg PUBLIC "-//W3C//DTD SVG 1.1//EN" "http://www.w3.org/Graphics/SVG/1.1/DTD/svg11.dtd">
<svg width="100%" height="100%" viewBox="0 0 2899 384" version="1.1" xmlns="http://www.w3.org/2000/svg" xmlns:xlink="http://www.w3.org/1999/xlink" xml:space="preserve" xmlns:serif="http://www.serif.com/" style="fill-rule:evenodd;clip-rule:evenodd;stroke-linejoin:round;stroke-miterlimit:2;">
    <g transform="matrix(1,0,0,1,-55.141471,-764.601628)">
        <g id="Logo-1.png" serif:id="Logo 1.png" transform="matrix(5.112105,0,0,5.112105,45.09985,754.428941)">
            <path d="M141.113,59.448C140.672,59.309 140.788,59.123 140.35,58.985C140.051,58.89 140.055,59.109 139.755,59.02C139.626,58.982 139.612,58.742 139.478,58.727C139.003,58.674 139.002,58.898 133.501,58.729C124.117,58.44 122.757,59.416 122.288,57.569C122.206,57.248 122.209,54.746 122.21,54.5C122.263,8.48 122.112,8.482 122.211,4.482C122.272,2.05 123.078,2.235 125.499,2.24C159.401,2.303 159.637,1.907 160.32,2.667C160.894,3.306 160.428,7.12 160.381,7.504C159.967,10.894 160.307,10.885 160.47,13.5C160.818,19.115 160.17,19.553 161.554,20.313C161.828,20.464 165.899,20.344 167.5,20.499C171.991,20.935 171.981,20.493 176.505,20.387C177.911,20.353 178.338,20.073 178.655,21.441C178.796,22.052 178.738,75.289 178.684,75.544C178.309,77.312 175.576,76.909 173.5,76.908C142.121,76.905 142.099,76.95 141.39,76.718C140.714,76.497 140.062,76.148 140.627,71.495C141.051,67.998 140.612,68.016 140.448,64.5C140.25,60.254 140.926,60.031 141.113,59.448ZM149.5,58.13C147.33,58.13 142.81,58.165 142.562,58.023C142.416,57.94 142.558,57.675 142.477,57.528C142.269,57.15 141.873,56.884 141.716,56.482C141.697,56.435 141.576,22.995 141.781,22.603C141.874,22.425 142.161,22.447 142.304,22.306C142.447,22.165 142.432,21.88 142.61,21.786C142.833,21.669 145.269,21.671 145.5,21.671C146.456,21.672 157.346,21.668 157.486,21.679C159.192,21.812 159.286,23.308 159.298,23.513C159.448,25.912 159.313,52.939 159.3,55.498C159.293,56.919 159.346,57.008 158.645,57.674C158.046,58.242 157.929,58.13 149.5,58.13Z" style="fill:rgb(231,76,93);fill-opacity:0.99;"/>
            <path d="M113.5,76.908C104.5,76.908 95.5,76.908 86.5,76.908C62.434,76.908 62.234,76.999 61.706,76.325C61.38,75.91 61.421,75.835 61.421,46.5C61.421,3.058 61.387,2.989 61.676,2.663C62.059,2.231 65.192,2.24 65.5,2.241C79.895,2.282 117.263,2.14 117.564,2.335C117.822,2.503 117.762,2.936 117.967,3.165C118.121,3.338 118.485,3.269 118.587,3.477C118.614,3.531 118.606,5.338 118.605,5.5C118.539,20.779 118.738,20.89 118.323,21.327C117.871,21.804 115.139,21.671 111.5,21.671C82.642,21.671 82.636,21.667 82.561,21.707C82.373,21.808 82.465,22.145 82.316,22.297C82.158,22.46 81.817,22.392 81.7,22.587C81.541,22.852 81.599,23.199 81.588,23.508C81.572,23.986 81.462,27.265 81.612,29.485C81.677,30.448 82.13,30.532 82.335,30.724C82.444,30.826 82.463,31.033 82.604,31.084C82.988,31.222 101.581,31.12 102.524,31.15C103.99,31.195 104.375,31.013 104.703,32.444C104.769,32.736 104.826,49.292 104.665,49.562C104.513,49.817 104.104,49.793 103.886,49.994C103.712,50.153 103.742,50.503 103.529,50.604C103.335,50.696 82.721,50.566 82.551,50.667C82.354,50.783 82.484,51.151 82.324,51.315C82.163,51.481 81.798,51.371 81.676,51.569C81.545,51.78 81.614,56.45 81.616,56.483C81.68,57.433 82.109,57.523 82.336,57.729C83.202,58.511 83.338,58.13 84.502,58.131C117.525,58.142 117.736,57.993 118.299,58.676C118.619,59.065 118.613,62.193 118.612,62.5C118.589,75.046 118.71,75.805 118.296,76.327C117.665,77.12 113.575,76.908 113.5,76.908Z" style="fill:rgb(231,76,93);fill-opacity:0.99;"/>
            <path d="M390.5,2.072C406.5,2.072 422.5,2.072 438.5,2.072C441.547,2.073 442.799,1.438 442.85,4.489C442.869,5.611 442.979,12.142 442.851,18.515C442.821,20.018 443.055,20.422 441.595,20.803C440.945,20.973 407.92,20.829 407.534,20.888C407.393,20.909 406.283,21.077 405.961,21.726C405.629,22.394 405.765,29.183 405.857,29.389C405.929,29.55 406.179,29.548 406.303,29.673C406.447,29.819 406.465,30.086 406.645,30.186C407.248,30.526 424.224,30.314 427.512,30.337C428.92,30.347 429.367,30.078 429.617,31.463C429.799,32.478 429.653,46.222 429.639,47.505C429.624,48.913 429.942,49.312 428.59,49.713C427.608,50.005 408.604,49.773 407.53,49.857C407.387,49.868 406.325,49.951 405.951,50.704C405.67,51.269 405.742,56.085 405.872,56.375C405.944,56.536 406.183,56.55 406.304,56.677C406.444,56.822 406.466,57.083 406.644,57.179C407.251,57.508 435.937,57.273 440.507,57.329C442.915,57.358 442.85,58.09 442.85,60.497C442.849,75.674 442.92,75.815 442.354,76.347C441.833,76.837 441.712,76.774 416.5,76.774C387.317,76.774 387.155,76.842 386.704,76.298C386.317,75.83 386.426,72.066 386.426,70.5C386.426,9.776 386.366,9.778 386.424,4.498C386.456,1.561 387.574,1.96 390.5,2.072Z" style="fill:rgb(231,76,93);fill-opacity:1;"/>
            <path d="M28.53,39.929C28.006,40.087 27.499,40.655 24.499,40.587C22.817,40.548 20.841,39.641 20.769,41.539C20.676,44.014 20.793,43.998 20.816,72.5C20.817,72.745 20.819,75.332 20.764,75.568C20.425,77.032 20.042,76.862 18.526,76.907C18.464,76.909 4.522,76.908 4.489,76.908C1.304,76.858 2.041,74.981 2.042,71.5C2.049,6.249 1.998,6.249 1.972,5.501C1.868,2.519 2.792,2.267 4.494,2.241C5.699,2.224 18.438,2.035 19.558,2.302C20.976,2.64 20.781,3.024 20.821,4.48C20.842,5.267 20.747,19.041 20.886,19.395C20.944,19.545 21.171,19.555 21.281,19.672C21.53,19.935 21.504,20.321 22.515,20.386C23.612,20.457 29.401,20.131 30.132,20.865C30.662,21.397 30.612,22.425 30.601,33.5C30.6,33.82 30.598,36.655 30.343,37.489C30.234,37.847 29.853,38.166 29.931,38.532C29.952,38.627 31.185,39.299 31.519,39.33C32.784,39.445 36.088,39.313 36.485,39.297C36.794,39.285 37.131,39.35 37.408,39.214C37.581,39.129 37.551,38.842 37.689,38.706C37.841,38.557 38.14,38.577 38.244,38.391C38.339,38.222 38.371,38.217 38.365,7.5C38.364,6.372 38.235,3.186 38.695,2.684C39.246,2.08 40.887,2.265 54.501,2.24C56.955,2.236 57.773,2.028 57.845,4.477C58.006,9.916 57.8,9.915 57.842,72.5C57.844,75.541 58.573,76.828 55.523,76.908C54.297,76.94 42.617,76.912 41.495,76.909C39.087,76.903 38.39,76.919 38.361,74.504C38.353,73.879 38.364,63.46 38.365,62.5C38.365,62.27 38.367,59.905 38.214,59.633C38.11,59.45 37.833,59.439 37.68,59.293C37.552,59.171 37.553,58.921 37.392,58.849C36.776,58.578 30.484,59.145 29.68,58.323C29.221,57.854 29.259,57.748 29.268,44.5C29.269,41.935 29.617,41.874 29.026,40.669C28.895,40.402 28.66,40.196 28.53,39.929Z" style="fill:rgb(231,76,93);fill-opacity:0.99;"/>
            <path d="M226.5,2.072C243.7,2.073 243.853,1.984 244.412,2.582C245.199,3.424 244.628,5.381 244.816,12.501C244.965,18.128 244.421,18.367 245.503,19.498C246.283,20.313 246.369,20.227 247.502,20.237C254.021,20.295 253.998,20.37 260.502,20.244C262.889,20.198 263.654,20.087 263.694,22.49C263.738,25.13 263.51,25.129 263.689,55.502C263.69,55.729 263.704,57.959 263.324,58.316C262.997,58.625 262.917,58.591 231.5,58.59C231.186,58.59 227.734,58.59 227.576,58.686C227.381,58.805 227.461,59.152 227.3,59.314C227.148,59.467 226.806,59.373 226.703,59.562C226.583,59.781 226.736,74.957 226.619,75.534C226.316,77.032 225.666,76.774 214.5,76.774C209.702,76.774 207.661,77.103 207.26,75.58C207.165,75.217 207.208,75.21 207.177,6.5C207.177,6.255 207.176,3.663 207.228,3.433C207.562,1.957 207.946,2.12 209.473,2.073C209.534,2.072 217.065,2.073 226.5,2.072ZM233.5,39.097C232.775,39.097 229.137,39.137 228.41,38.999C227.107,38.752 226.837,38.784 226.68,37.475C226.586,36.691 226.653,24.62 226.66,23.502C226.673,21.14 227.139,20.882 229.503,20.879C230.462,20.877 241.106,20.862 241.498,20.879C244.647,21.016 244.197,23.591 244.197,24.5C244.2,38.022 244.296,38.257 243.612,38.628C242.552,39.201 242.5,39.097 233.5,39.097Z" style="fill:rgb(231,76,93);fill-opacity:1;"/>
            <path d="M564.5,2.072C567.374,2.129 567.363,2.075 567.604,2.134C567.743,2.168 568.614,2.383 568.859,3.403C568.941,3.742 568.964,19.147 568.845,19.607C568.415,21.275 565.713,20.873 563.5,20.879C561.173,20.886 560.443,20.287 559.849,22.537C559.771,22.833 559.943,37.835 559.736,38.585C559.319,40.099 556.703,39.728 553.5,39.728C544.147,39.728 542.786,39.704 542.574,39.824C542.408,39.918 542.503,40.217 542.381,40.364C542.257,40.51 541.988,40.49 541.882,40.649C541.612,41.052 541.61,43.271 541.61,43.5C541.596,56.409 541.686,56.393 541.701,56.418C541.816,56.611 542.154,56.541 542.313,56.701C542.463,56.852 542.379,57.187 542.567,57.289C542.762,57.395 565.059,57.314 566.505,57.333C568.937,57.364 568.912,58.072 568.916,60.496C568.918,61.618 568.94,73.795 568.915,74.53C568.864,76.019 569.022,76.4 567.555,76.724C567.322,76.776 564.744,76.774 564.5,76.774C513.638,76.738 513.611,76.79 513.431,76.675C513.169,76.507 513.216,76.075 513.008,75.844C512.855,75.674 512.497,75.734 512.397,75.527C512.367,75.466 512.375,73.662 512.375,73.5C512.437,58.244 512.216,58.135 512.671,57.667C513.157,57.168 516.591,57.355 519.498,57.337C520.948,57.329 521.025,57.363 521.689,56.65C521.79,56.541 521.969,56.492 522.02,56.353C522.222,55.8 522.087,43.278 522.121,41.485C522.15,39.961 521.917,39.55 523.399,39.169C524.146,38.977 537.623,39.234 538.586,38.994C539.846,38.68 540.228,37.65 540.292,37.479C540.43,37.106 540.344,24.62 540.337,23.502C540.327,22.052 540.34,21.988 539.645,21.314C539.54,21.212 539.497,21.03 539.359,20.979C538.776,20.765 515.681,20.935 514.455,20.873C514.242,20.862 512.655,20.905 512.406,19.522C512.206,18.403 512.359,5.699 512.374,4.497C512.39,3.131 512.408,1.879 515.504,1.998C517.6,2.079 517.599,2.073 564.5,2.072Z" style="fill:rgb(231,76,93);fill-opacity:0.99;"/>
            <path d="M271.5,2.072C322.236,2.073 322.244,2.056 322.616,2.159C324.111,2.571 323.83,3.832 323.83,12.5C323.83,19.566 324.313,20.809 321.521,20.88C320.089,20.916 307.174,20.785 306.64,20.976C306.502,21.025 306.456,21.205 306.348,21.304C305.624,21.97 305.654,22.04 305.646,23.502C305.632,26.135 305.47,55.921 305.741,56.41C305.843,56.595 306.156,56.548 306.307,56.697C306.454,56.842 306.406,57.152 306.589,57.25C306.792,57.36 307.799,57.337 317.5,57.337C319.748,57.337 322.762,57.195 323.319,57.703C323.964,58.291 323.818,59.32 323.832,73.501C323.834,75.954 323.96,76.732 321.513,76.779C317.513,76.857 317.515,76.723 271.5,76.774C271.193,76.774 268.125,76.778 267.692,76.316C266.979,75.552 267.366,75.376 267.318,61.5C267.308,58.605 266.601,57.366 269.489,57.323C272.432,57.28 284.638,57.517 285.318,57.145C285.497,57.046 285.553,56.809 285.693,56.66C286.153,56.168 286.13,56.15 286.154,55.475C286.3,51.411 286.17,26.061 286.157,23.504C286.14,20.225 284.786,20.879 281.5,20.879C268.673,20.88 268.236,20.983 267.684,20.335C267.18,19.743 267.348,18.825 267.32,6.5C267.319,5.98 266.917,2.689 268.376,2.219C268.615,2.143 268.605,2.208 271.5,2.072Z" style="fill:rgb(231,76,93);fill-opacity:1;"/>
            <path d="M341.5,2.072C341.702,2.073 345.663,1.863 346.295,2.671C346.622,3.089 346.62,5.272 346.62,5.5C346.619,7.259 346.603,27.441 346.606,27.492C346.683,29.108 346.896,29.334 348.507,29.398C350.956,29.496 360.46,29.395 361.499,29.384C361.719,29.381 363.538,29.362 364.077,28.42C364.268,28.085 364.131,6.789 364.169,4.49C364.221,1.356 366.065,2.072 369.5,2.072C382.16,2.072 382.773,1.951 383.286,2.685C383.544,3.054 383.542,6.194 383.542,6.5C383.533,21.26 383.585,29.326 383.493,29.498C383.376,29.718 383.002,29.67 382.836,29.857C382.661,30.055 382.756,30.455 382.528,30.588C382.424,30.649 382.417,30.618 377.5,30.618C366.466,30.617 366.404,30.544 365.69,30.968C364.853,31.465 364.878,31.553 364.822,32.518C364.75,33.751 364.814,44.46 364.82,45.498C364.826,46.604 364.722,46.693 365.516,47.484C366.309,48.275 366.397,48.17 367.502,48.177C382.303,48.27 382.582,47.812 383.275,48.715C383.548,49.071 383.542,52.196 383.542,52.5C383.529,60.059 383.576,75.055 383.51,75.503C383.288,77.013 381.66,76.776 380.502,76.775C365.857,76.756 365.248,76.914 364.652,76.343C364.03,75.748 364.315,75.575 364.17,51.502C364.157,49.307 362.831,48.844 361.498,48.833C360.385,48.823 347.987,48.721 347.578,48.916C347.432,48.986 347.496,49.239 347.398,49.368C347.286,49.516 347.07,49.566 346.969,49.721C346.511,50.424 346.62,52.165 346.62,52.5C346.628,72.759 346.644,72.745 346.633,74.506C346.624,75.909 346.931,76.324 345.568,76.673C344.175,77.029 330.775,76.801 329.489,76.779C327.025,76.736 327.127,75.968 327.128,73.502C327.128,70.168 327.129,66.834 327.129,63.5C327.129,59.972 326.933,59.985 327.057,56.463C327.194,52.563 327.06,52.572 327.117,50.478C327.157,48.971 326.973,48.585 328.427,48.237C329.177,48.058 343.86,48.336 344.405,48.048C344.548,47.972 344.475,47.718 344.579,47.593C344.689,47.46 344.919,47.458 345.015,47.315C345.446,46.667 345.339,44.544 345.339,44.5C345.335,32.737 345.382,31.889 345.193,31.585C345.088,31.416 344.78,31.507 344.637,31.368C344.493,31.228 344.567,30.924 344.399,30.814C343.531,30.243 328.633,31.07 327.677,30.295C326.91,29.674 327.122,25.759 327.118,24.5C327.111,22.482 326.906,22.504 327.032,20.501C327.216,17.567 327.096,6.372 327.128,4.488C327.154,2.952 326.927,2.576 328.39,2.146C328.753,2.04 328.763,2.072 341.5,2.072Z" style="fill:rgb(231,76,93);fill-opacity:0.99;"/>
            <path d="M463.5,2.072C463.83,2.073 467.118,2.086 467.622,2.256C468.437,2.532 468.427,2.639 468.575,3.484C468.708,4.247 468.474,56.033 468.702,56.417C468.817,56.61 469.156,56.54 469.314,56.7C469.464,56.852 469.378,57.187 469.566,57.289C469.668,57.345 469.678,57.337 495.5,57.337C504.736,57.337 505.352,57.059 505.589,58.473C505.776,59.592 505.625,73.222 505.61,74.505C505.584,76.858 504.857,76.78 502.503,76.776C499.586,76.771 452.717,76.774 452.5,76.775C449.606,76.782 448.37,77.413 448.372,74.505C448.377,71.17 448.383,67.835 448.388,64.5C448.388,3.166 448.35,3.09 448.693,2.662C449.295,1.913 451.276,1.989 451.507,1.997C453.798,2.085 453.794,2.072 463.5,2.072Z" style="fill:rgb(231,76,93);fill-opacity:0.98;"/>
            <path d="M165.4,4.393C165.632,4.209 165.52,4.022 166.508,3.513C167.602,2.95 167.574,2.907 167.67,2.86C169.763,1.835 173.282,2.328 174.304,2.891C174.446,2.969 174.501,3.157 174.638,3.242C175.215,3.598 175.892,3.447 176.508,4.492C176.641,4.72 176.717,4.985 176.887,5.187C177.024,5.35 177.28,5.389 177.406,5.561C177.579,5.797 177.597,6.119 177.751,6.368C177.836,6.505 178.029,6.554 178.106,6.696C178.25,6.957 178.313,7.254 178.395,7.541C179.679,12.042 177.083,15.632 175.553,16.562C174.562,17.165 174.652,17.329 173.534,17.607C170.617,18.333 170.595,17.959 170.489,17.948C168.904,17.779 168.911,18.031 168.776,18.007C168.626,17.981 168.55,17.796 168.411,17.733C165.559,16.459 165.225,16.838 164.502,15.498C164.371,15.256 164.313,14.972 164.148,14.751C164.032,14.595 163.779,14.567 163.681,14.398C163.53,14.136 163.513,13.816 163.439,13.521C162.933,11.51 162.759,11.514 163.017,9.448C163.207,7.917 162.966,7.928 162.993,7.798C163.027,7.637 163.23,7.562 163.303,7.415C163.813,6.382 163.63,6.282 164.409,5.422C164.888,4.892 164.894,4.918 165.4,4.393Z" style="fill:rgb(231,76,93);fill-opacity:0.99;"/>
            <path d="M255.499,2.096C256.234,2.123 259.774,1.726 261.563,4.442C261.714,4.67 261.816,4.931 261.987,5.144C262.111,5.3 262.327,5.372 262.437,5.538C262.603,5.787 262.646,6.101 262.797,6.359C262.873,6.489 263.041,6.551 263.109,6.685C263.853,8.155 263.703,11.741 263.352,12.434C263.278,12.58 263.013,12.567 262.953,12.72C262.895,12.866 263.12,13.036 263.058,13.181C262.979,13.365 262.719,13.407 262.593,13.564C262.419,13.78 262.336,14.059 262.17,14.282C262.043,14.454 261.373,15.353 260.281,16.177C259.227,16.974 259.268,17.006 259.164,17.053C259.034,17.111 258.877,16.93 258.742,16.977C258.594,17.03 258.56,17.256 258.415,17.318C258.034,17.481 255.862,17.735 254.49,17.569C251.354,17.19 249.027,14.514 248.545,13.474C248.076,12.461 247.899,12.545 247.676,11.44C247.307,9.616 247.675,8.667 248.325,6.44C248.965,4.249 249.513,4.632 250.085,4.069C250.254,3.903 250.298,3.629 250.479,3.476C250.693,3.295 251.008,3.271 251.231,3.101C251.383,2.984 251.409,2.737 251.573,2.638C252.227,2.243 255.182,2.11 255.499,2.096Z" style="fill:rgb(231,76,93);fill-opacity:0.99;"/>
            <path d="M130.505,76.901C126.721,76.799 126.553,76.782 124.399,74.597C123.343,73.525 122.29,73.169 122.246,69.504C122.242,69.195 122.215,66.938 122.893,65.697C122.97,65.555 123.159,65.5 123.243,65.363C123.396,65.114 123.418,64.794 123.592,64.56C123.72,64.387 123.976,64.347 124.115,64.183C124.284,63.983 124.36,63.719 124.494,63.494C125.113,62.443 125.774,62.612 126.371,62.256C126.51,62.173 126.569,61.985 126.713,61.912C127.711,61.41 131.459,61.049 133.305,61.893C133.402,61.937 133.37,61.993 134.475,62.54C135.277,62.937 136.972,64.515 137.38,65.57C137.489,65.851 137.537,66.156 137.673,66.424C137.749,66.575 137.971,66.641 138.005,66.807C138.032,66.935 137.758,66.924 137.965,68.442C138.247,70.505 138.179,70.527 137.457,72.479C137.194,73.191 137.128,73.142 136.799,73.68C136.65,73.922 136.598,74.221 136.42,74.442C136.272,74.624 136.016,74.687 135.85,74.852C135.685,75.017 135.623,75.272 135.442,75.419C135.222,75.598 134.921,75.649 134.681,75.801C132.819,76.981 132.718,76.749 130.505,76.901Z" style="fill:rgb(231,76,93);fill-opacity:0.99;"/>
        </g>
    </g>
</svg>
